<?xml version="1.0" encoding="utf-8"?>
<!-- Generator: Adobe Illustrator 24.3.0, SVG Export Plug-In . SVG Version: 6.00 Build 0)  -->
<svg version="1.1" xmlns="http://www.w3.org/2000/svg" xmlns:xlink="http://www.w3.org/1999/xlink" x="0px" y="0px"
	 viewBox="0 0 4000 4000" style="enable-background:new 0 0 4000 4000;" xml:space="preserve">
<style type="text/css">
	.st0{fill:#FFFFFF;}
	.st1{fill:#010504;}
	.st2{fill:#CBCACA;}
	.st3{fill:#FFFFFF;stroke:#010504;stroke-width:8;stroke-linecap:round;stroke-linejoin:round;stroke-miterlimit:10;}
	.st4{fill:none;stroke:#000000;stroke-width:8;stroke-linecap:round;stroke-linejoin:round;stroke-miterlimit:10;}
	.st5{fill:none;stroke:#010504;stroke-width:8;stroke-linecap:round;stroke-linejoin:round;stroke-miterlimit:10;}
	.st6{stroke:#010504;stroke-width:8;stroke-linecap:round;stroke-linejoin:round;stroke-miterlimit:10;}
	.st7{fill:#FFB001;}
	.st8{fill:#FBB205;}
</style>
<g id="BACKGROUND__x28_locked_x29_">
</g>
<g id="OBJECTS">
	<path class="st0" d="M2173.5,3768.9c-2.6,0-5.1-0.6-7.4-1.8c-31.3-0.2-67.5-0.3-105.5-0.5c-2.3,1.2-4.8,1.8-7.3,1.8h-26.3
		c-2.7,0-5.3-0.7-7.6-1.9c-35.2-0.1-71-0.2-105.1-0.3c-2.4,1.3-5,2-7.8,2h-26.1c-2.8,0-5.5-0.7-7.9-2.1l-18.3,0
		c-34.7,0-63.6,0.1-85.9,0.2c-2.2,1.1-4.7,1.7-7.2,1.7h-28.4c-2.1,0-4.2-0.4-6.2-1.2c-7.6,0.2-10.9,0.3-12.3,0.4
		c-1.2,0.3-2.4,0.4-3.6,0.4c-4.3,0-8.3-1.7-11.3-4.7c-3.2-3.2-4.9-7.6-4.7-12.2c0-0.5,0.1-1,0.2-1.6
		c21.2-206.2-6.2-444.5-81.3-708.2c-24.2-1.4-45.9-4.4-66.2-9.2c-9.5-2.2-20.4-10.2-24.7-13.5c-3-2.3-5-5.6-5.8-9.3
		c-2.2-10-9-42.2-13.8-71.9c-3.1,5.3-6.2,10.5-9.2,15.6c-7.1,11.9-15.2,23.6-30.3,23.6c-7.7,0-14.5-3.1-23.8-7.3l-3.9-1.7
		c-35.2-15.8-67.5-37.2-95.8-63.5c-11-10.3-21.3-26.2-21.8-26.8c-2.1-3.2-2.9-7-2.4-10.8c2.3-17.1,4.4-40.8,4.5-59.6l-54.9,48.4
		c-2.9,2.6-6.7,4-10.6,4c-3.5,0-6.8-1.1-9.6-3.2c-59.2-44.8-81.5-88.2-66.2-129.1c10.1-27,34.1-43,57.2-58.5
		c22.9-15.3,42.6-28.4,42.3-48.2c-0.3-19.5-21.6-34.4-30.8-39.9c-6.2-3.7-12.7-7-19.6-10.5c-14.3-7.3-29.1-14.8-41.9-26.5
		c-19.3-17.6-30.9-43.8-31.8-72.1c-0.9-28.2,9.1-55.2,27.3-73.9c7.6-7.8,16.2-14.1,24.4-20.2c11-8.1,21.5-15.7,27.4-25.7
		c11.8-19.9,5-47.5-1.5-74.2c-1.3-5.3-2.6-10.7-3.8-16c-1-4.7-1.9-9.5-2.7-14.5l-0.1-0.1c-7-6.6-23.8-16.1-40.1-25.3
		c-18.3-10.3-35.5-20.1-48-30.1c-24.1-19.4-22.7-36-17.3-46.4c2.8-5.5,10.1-14.8,27.1-14.8c6.1,0,13.2,1.2,22.1,3.7
		c-23.6-27.2-48-60.3-27-82c5-5.1,11.8-8,19.2-8c7.6,0,15.6,2.8,25,9.1c-2.5-4.7-4.5-8.9-6.3-12.9c-11.3-25.8-9.4-44.1,5.7-54.2
		c0.7-0.4,1.2-0.7,1.7-1c4.4-2.3,9-3.5,13.9-3.5c19.4,0,38.6,17.9,62.3,58.1c4.1,7,8.6,13.9,13.4,20.5l0.2-55.4
		c0-8.4,0.1-18.7,5.1-29.3c4.8-10.1,13.2-16.9,23-18.6c1.6-0.3,3.3-0.5,5-0.5c10,0,19.6,5.2,25.7,13.8c4.7,6.6,6.4,13.6,7.6,18.7
		c3.4,14.2,7,28.8,10.3,43.5c22.6-10.9,43.4-22.8,54.4-43.1c6.4-11.8,9.1-25.9,11.9-40.8c1.5-8.1,3.1-16.4,5.3-24.7
		c11.1-41.2,39.3-100.6,71.8-134.5c116.5-121.5,283.3-191.2,457.6-191.2c64.3,0,127.2,9.6,187.2,28.4l416.1-375.4
		c2.9-2.7,6.8-4.1,10.7-4.1c2.5,0,5,0.6,7.3,1.7c5.9,3,9.3,9.4,8.7,15.9l-61.2,578.8c78.5,95.1,69.2,198.5,64.7,248.4
		c-0.7,7.7-1.3,14.3-1.4,19.2c-0.1,3.8,0.3,5.4,0.4,6c1.8,0.9,7.8,1.3,10.5,1.5l0.8,0.1c11.9,0.8,23.2,2.9,33.8,6.1
		c-4.4-40.2-0.1-85.1,2.9-109.1l0.1-1c0.4-4.7,2.6-9.3,6.2-12.7c3.7-3.5,8.6-5.4,13.7-5.4c1,0,2,0.1,3,0.2
		c8.4,1.2,26.5,6.1,36.2,25.1c4.6-22.1,9.9-44,15.1-65.2c1.3-5.2,3-12.2,7.7-18.8c6.1-8.7,15.7-13.8,25.7-13.8
		c1.7,0,3.4,0.2,5.1,0.5c9.8,1.8,18.1,8.6,22.9,18.6c5,10.5,5.1,20.9,5.1,29.3l0.2,55.5c4.8-6.7,9.2-13.5,13.4-20.5
		c30.6-52,50.3-58.1,62.4-58.1c4.8,0,9.4,1.2,13.7,3.4c0.6,0.3,1.2,0.7,1.7,1c15.1,10.1,17,28.3,5.7,54.2c-1.7,4-3.8,8.2-6.3,12.9
		c9.4-6.2,17.3-9,24.8-9c7.5,0,14.3,2.8,19.3,8c21,21.8-3.4,54.8-27,82c8.9-2.5,16-3.7,22.1-3.7c16.9,0,24.2,9.3,27.1,14.8
		c5.4,10.5,6.8,27-17.3,46.4c-12.5,10-29.7,19.8-47.9,30.1c-16.3,9.2-33.2,18.8-40.1,25.3c-1.5,1.4-2.8,2.7-4.2,4
		c-10.8,10.4-19.3,18.5-45.4,32.8c-4.2,2.3-8.2,4.3-12.2,6.2c-10.3,5.1-19.2,9.5-24.8,16.1c0.2,3.7-0.6,7.1-2.5,10.1
		c-0.4,0.6-0.7,1.1-1.2,1.6c-15.9,27.9-31.7,56.3-47.1,84.6c1.1,0,2.2,0.1,3.5,0.1c3.8,0,7.8-0.2,12-0.4c4.6-0.2,9.1-0.5,13.7-0.5
		c7,0,12.9,0.5,18.5,1.7c28.1,5.9,51.8,30.3,58.8,60.6c5.9,25.2,0.6,54.4-14.5,79.9l-0.9,1.5c-3.7,6.2-12.3,20.9-9.5,24.6
		c1.9,2.5,10.8,2.9,17.3,3.1c2.6,0.1,5.2,0.2,7.9,0.4c23.3,1.8,45.7,14.5,61.4,34.8c15.6,20.2,22.2,44.7,18.1,67.4
		c-0.7,3.8-2.8,7.3-5.8,9.7l-129.6,102.3c-2.8,2.2-6.3,3.4-9.9,3.4c-3.9,0-7.7-1.4-10.7-4.1l-28.3-25.3l13,36.3
		c4.5,12.6-5,20.8-25.1,36.8c-12.8,10.1-30.5,23.3-51.2,38.1c-44.2,31.5-90.3,62.1-117.5,77.8c-2.4,1.4-5.2,2.1-8,2.1
		c-2.5,0-5.1-0.6-7.3-1.8l-4.7-2.4l-1.9,20.7c-0.3,3.3-1.6,6.5-3.8,9c-17.3,20-39.4,36.2-65.6,48.2
		c-104.4,321.2-127.8,561-132.5,676.1c1.6,4,2.4,8.6,2.3,13.5c-0.1,5.1-1.1,9.8-3.2,13.8c-0.7,34.8,0.4,53.7,0.4,53.9
		c0.3,4.4-1.3,8.8-4.3,12c-3,3.2-7.2,5-11.6,5c-1.1,0-26-0.2-64.7-0.4c-2.2,1.1-4.6,1.6-7,1.6H2173.5z"/>
	<path class="st1" d="M2308.7,1767.1c-26.3-59.2-86.7-96.1-147.6-118.2c-223.8-81-487.3-21.2-652.1,150.6
		c-29.2,30.4-56.9,86.9-67.9,127.6c-6.2,23.1-7.1,48-18.6,69c-25.2,46.2-87.9,54.1-129.3,86.6c-50.2,39.4-63,112.4-49.2,174.7
		c7.5,34.1,21.3,71.9,3.4,101.9c-12.5,21-37.1,31.3-54.1,48.8c-31.9,32.8-30.1,92.2,3.7,123c17,15.4,39.3,23.4,59,35.2
		c19.7,11.8,38.2,30.4,38.5,53.4c0.7,52.2-82.3,63.7-100.6,112.5c-15.9,42.5,24.7,83.4,60.8,110.7c25.9-22.8,51.7-45.6,77.6-68.4
		c9.1,21-0.8,93.7-0.8,93.7s9.5,14.7,19.2,23.8c26.9,25,57.9,45.6,91.4,60.6c22,9.9,25.2,13.1,37.7-8.1
		c11.3-19.2,22.7-38.3,34.4-57.3c-3.1,21,18.1,118.3,18.1,118.3s11.4,8.9,18.6,10.6c56.7,13.4,115.9,10,174.1,6.5
		c109.5-6.6,219-13.1,328.5-19.7c59.1-3.5,114.1,2.7,173.3,2.9c88.5,0.4,188.9-4.4,246.8-71.4c1.4-14.8,2.7-29.5,4.1-44.3
		c8.6,4.4,17.2,8.9,25.8,13.3c58.6-33.8,189.1-126.9,186.8-133.5c-11.4-31.8-22.7-63.7-34.1-95.5c25.1,22.4,50.1,44.8,75.2,67.2
		c43.2-34.1,86.4-68.2,129.6-102.3c6.9-38.6-26-80.5-65-83.5c-13.1-1-28.9,0.6-36.8-9.9c-9.6-12.7,1.3-30.1,9.4-43.8
		c12-20.4,18-45.1,12.7-68.1c-5.4-23.1-23.4-43.7-46.5-48.6c-15.6-3.3-31.8,0.5-47.7-0.7c-15.9-1.2-33.7-10.2-35.6-26
		c-1.2-10.2,4.4-19.7,9.6-28.5c15.3-26,28.4-53.9,31.9-83.9s-3.9-62.2-24.9-83.8c-18.2-18.6-44.6-27.4-70.6-29.1
		c-8.1-0.6-17.3-1-22.5-7.2c-3.8-4.5-4.2-10.8-4.1-16.7c1.2-44.9,34.8-188.2-106-302.8C2429.1,1777.8,2348.3,1745.5,2308.7,1767.1z"
		/>
	<path class="st0" d="M2631.7,2840.1c-0.5,0-1-0.4-1-1c-0.5-25-2.3-51-18.4-69c-11.2-12.5-27.6-18.8-43.4-25
		c-2.3-0.9-4.5-1.8-6.8-2.6c-25.5-10.1-44.1-21.2-58.7-34.9c-32.6-30.7-46.8-81-35.3-125.2c4.4-17,12.3-33.1,19.9-48.6
		c5.9-12.1,12-24.6,16.5-37.4c9.1-26.4,11.2-64.7-13.2-85.7c-11.4-9.8-26.5-13.9-41.1-17.9c-13.8-3.8-28.2-7.7-39.6-16.4
		c-17.6-13.4-27.2-37.6-25.7-64.7c1.3-24.2,10.4-46.9,19.2-68.9c0.2-0.5,0.8-0.8,1.3-0.6c0.5,0.2,0.8,0.8,0.6,1.3
		c-8.7,21.8-17.7,44.4-19.1,68.2c-1.5,26.5,7.9,50,24.9,63c11.2,8.5,25.3,12.4,38.9,16.1c14.8,4,30.1,8.2,41.8,18.3
		c25.2,21.7,23.2,60.9,13.8,87.9c-4.5,13-10.6,25.5-16.6,37.6c-7.6,15.4-15.4,31.4-19.7,48.2c-11.3,43.5,2.7,93.1,34.8,123.3
		c14.4,13.5,32.8,24.5,58,34.5c2.2,0.9,4.5,1.8,6.8,2.6c16.1,6.2,32.7,12.6,44.2,25.5c16.6,18.5,18.5,46,18.9,70.3
		C2632.7,2839.7,2632.3,2840.1,2631.7,2840.1C2631.7,2840.1,2631.7,2840.1,2631.7,2840.1z"/>
	<path class="st0" d="M2452.2,2977.7c-0.3,0-0.6-0.1-0.8-0.4c-14.9-17.6-14.8-41.7-14.7-65.1c0.1-21.9,0.2-44.5-12-61.7
		c-7.1-10.1-17.7-17.1-27.9-23.9c-5.1-3.4-10.4-6.9-15.2-10.8c-20.8-16.7-34.7-41.4-38.1-67.9c-3.2-25.2,2.8-50.4,8.7-74.9
		c1.3-5.5,2.7-11.2,3.9-16.8c5.5-24.9,10.9-61.3-6.3-89.5c-5.6-9.1-13.3-17.1-20.8-24.7c-9.3-9.5-18.9-19.3-24.5-31.6
		c-6.8-15-6.9-31.5-6.4-49.9c0.9-29.9,2.8-58.8,17.2-83.2c0.3-0.5,0.9-0.6,1.4-0.4c0.5,0.3,0.6,0.9,0.4,1.4
		c-14.2,24-16.1,52.6-17,82.3c-0.5,18.2-0.4,34.4,6.2,49c5.4,12,14.9,21.6,24.1,31c7.6,7.7,15.4,15.7,21.1,25.1
		c17.5,28.8,12.1,65.7,6.5,91c-1.2,5.6-2.6,11.3-3.9,16.9c-5.8,24.3-11.9,49.4-8.7,74.2c3.3,25.9,16.9,50.2,37.3,66.6
		c4.8,3.8,10,7.3,15.1,10.7c10.4,6.9,21.1,14.1,28.4,24.5c12.5,17.8,12.4,40.7,12.3,62.8c-0.1,24.1-0.2,46.8,14.2,63.8
		c0.4,0.4,0.3,1.1-0.1,1.4C2452.6,2977.7,2452.4,2977.7,2452.2,2977.7z"/>
	<path class="st0" d="M2300.6,2997.5c-0.3,0-0.5-0.1-0.7-0.3c-15.8-17.3-24-40.7-22.7-64c0.8-14.1,5-27.8,9.1-41.1
		c2.9-9.5,5.9-19.3,7.7-29.1c6.8-38.8-7.3-81.3-35.9-108.2c-10.4-9.8-22.6-17.8-34.5-25.5c-7.7-5-15.7-10.2-23.1-15.9
		c-16.3-12.4-36-32.7-37.5-58.7c-1-16.7,5.8-32.5,12.4-47.7c2-4.6,4.1-9.4,5.9-14.1c15-39.2,14.6-84.1-1.1-123
		c-0.2-0.5,0-1.1,0.6-1.3c0.5-0.2,1.1,0,1.3,0.6c15.9,39.4,16.3,84.8,1.1,124.5c-1.8,4.8-3.9,9.6-5.9,14.2
		c-6.5,15-13.2,30.6-12.3,46.8c1.4,25.2,20.8,45.1,36.7,57.2c7.4,5.6,15.3,10.8,23,15.8c11.9,7.8,24.2,15.8,34.7,25.7
		c29.1,27.4,43.5,70.6,36.5,110c-1.8,10-4.8,19.8-7.7,29.3c-4,13.1-8.2,26.7-9,40.6c-1.3,22.8,6.8,45.6,22.2,62.6
		c0.4,0.4,0.3,1-0.1,1.4C2301.1,2997.4,2300.9,2997.5,2300.6,2997.5z"/>
	<path class="st0" d="M2185.2,2904.1C2185.2,2904.1,2185.2,2904.1,2185.2,2904.1c-0.6,0-1-0.5-1-1c0.2-33.8-10.4-67.7-29.8-95.4
		c-5.3-7.6-11.4-15-17.3-22.1c-11.3-13.6-23-27.8-29.8-44.4c-13.6-33.5-5-70.4,3.2-106c7.9-34.2,16.1-69.5,4.8-101.9
		c-0.2-0.5,0.1-1.1,0.6-1.3c0.5-0.2,1.1,0.1,1.3,0.6c11.5,32.9,3.2,68.5-4.8,103c-8.2,35.3-16.7,71.9-3.3,104.8
		c6.6,16.4,18.3,30.4,29.5,43.9c5.9,7.1,12.1,14.5,17.4,22.2c19.6,28,30.3,62.3,30.1,96.6
		C2186.2,2903.6,2185.8,2904.1,2185.2,2904.1z"/>
	<path class="st0" d="M1472.6,2981.8c-0.4,0-0.8-0.2-0.9-0.6c-13.9-33.5-41.3-117.9,4.1-176.9c14.4-18.6,34.3-32.1,53.5-45.1
		c10-6.8,20.4-13.7,29.8-21.4c40.4-32.7,74.5-93.7,53.9-150.6c-4.5-12.3-11.4-24.1-18.1-35.4c-11.1-18.9-22.6-38.4-22.8-60.5
		c-0.2-26.1,15.3-48.3,30.3-69.9c4-5.8,8.2-11.8,11.9-17.7c14.8-23.3,25.2-50,30.2-77.2c0.1-0.5,0.6-0.9,1.2-0.8
		c0.5,0.1,0.9,0.6,0.8,1.2c-5,27.4-15.5,54.3-30.4,77.9c-3.8,5.9-7.9,11.9-11.9,17.7c-14.8,21.3-30.1,43.3-29.9,68.7
		c0.1,21.5,11,40,22.5,59.5c6.8,11.5,13.7,23.3,18.3,35.8c21,57.8-13.5,119.7-54.5,152.8c-9.5,7.7-19.9,14.7-29.9,21.5
		c-19.1,12.9-38.9,26.2-53,44.6c-44.8,58.2-17.6,141.7-3.8,174.9c0.2,0.5,0,1.1-0.5,1.3C1472.9,2981.8,1472.7,2981.8,1472.6,2981.8z
		"/>
	<path class="st0" d="M1592.4,3045.9c-0.5,0-0.9-0.4-1-0.8c-3.1-19.9-4.9-42.6,5.4-60.9c9.6-17.1,27.5-26.8,44.8-36.3
		c17.3-9.5,35.2-19.2,44.3-36.3c8.9-16.6,8.5-38.4-0.9-66.8c-1.5-4.4-3.1-9-4.7-13.3c-6.3-17.4-12.7-35.4-12.4-54
		c0.6-34.8,23.8-62.7,46.2-89.7c19.5-23.5,39.7-47.9,45.6-77c3.9-19.5,1.1-39.9-1.6-59.7c-3.1-22-6.2-44.8,0-66.4
		c0.2-0.5,0.7-0.8,1.2-0.7c0.5,0.2,0.8,0.7,0.7,1.2c-6.1,21.2-3,43.7,0.1,65.6c2.8,19.9,5.6,40.5,1.6,60.4
		c-6,29.7-26.3,54.2-46,77.9c-23.2,27.9-45.1,54.3-45.7,88.4c-0.3,18.3,6.1,36.1,12.3,53.3c1.6,4.4,3.2,8.9,4.7,13.4
		c9.7,28.9,9.9,51.3,0.8,68.4c-9.4,17.5-27.6,27.5-45.1,37.1c-17.1,9.3-34.7,19-44,35.5c-9.9,17.7-8.3,39.1-5.1,59.6
		c0.1,0.5-0.3,1.1-0.8,1.1C1592.5,3045.9,1592.5,3045.9,1592.4,3045.9z"/>
	<path class="st0" d="M1818.2,2919.8c-0.1,0-0.1,0-0.2,0c-0.5-0.1-0.9-0.7-0.8-1.2c3.1-14.1-1.9-28.4-6.7-42.2
		c-1.9-5.3-3.8-10.8-5.2-16.2c-14.7-54.9,18.1-109,57.1-138.4c3.8-2.9,7.8-5.7,11.7-8.3c10.9-7.6,22.2-15.4,30.4-26
		c16.6-21.5,19.9-54,9-89.3c-4.9-16-12.1-31.5-19-46.5c-6-13.1-12.3-26.7-17-40.5c-0.2-0.5,0.1-1.1,0.6-1.3c0.5-0.2,1.1,0.1,1.3,0.6
		c4.7,13.8,11,27.3,17,40.3c6.9,15.1,14.1,30.6,19.1,46.8c11.1,35.9,7.7,69.2-9.4,91.1c-8.4,10.8-19.8,18.7-30.8,26.4
		c-3.9,2.7-7.8,5.5-11.6,8.3c-45.5,34.2-68.6,90.2-56.4,136.2c1.4,5.3,3.3,10.8,5.2,16.1c4.9,14.1,10,28.6,6.8,43.3
		C1819.1,2919.5,1818.7,2919.8,1818.2,2919.8z"/>
	<path class="st2" d="M1641.4,1376.2l-42.4,30.4c0,0,11,62.4,34,62.6c4.8-0.2,14.8-2.1,22.5-16.1c3.6-5.9,20.9-20.4,41.7,29.9
		c0.5,0.7,23.7-17,23.7-17s8.2-55.3-26.7-54c-32.1,6.3-38.4-0.1-38.4-0.1S1641.6,1405.4,1641.4,1376.2z"/>
	<polygon class="st0" points="3300.6,1906.8 3289.9,1950.7 3250.8,1955.6 3285,1971.3 3265.4,2017.2 3305.5,1982.5 3358.2,2003.5 
		3333.8,1966.1 3358.2,1939 3317.2,1944.9 	"/>
	<path class="st0" d="M2569,1268.6c-1.5,0-3-0.2-4.5-0.6c-6.8-2-11.5-8.3-11.5-15.4c0-9.1,1.1-90.5,38.2-130.5
		c3-3.2,7.3-5.1,11.7-5.1c2,0,4,0.4,5.9,1.1c1.8,0.7,3.4,1.7,4.8,3c3.9,2.8,26,16.9,50.4,32.3c4.4,2.8,7.2,7.5,7.5,12.7
		c0.3,5.2-2,10.2-6.1,13.4c-0.6,0.5-61.8,48.9-82.9,81.7C2579.5,1265.9,2574.5,1268.6,2569,1268.6z"/>
	<path class="st0" d="M2557.1,1268.6c-4.1,0-8-1.6-11-4.4c-5.5-5.2-54.1-52.6-55-100.3c-0.1-4.3,1.6-8.5,4.6-11.5
		c2.7-2.8,6.3-4.4,10.1-4.7c2.2-0.3,20.2-2.7,42.4-5.8c0.7-0.1,1.5-0.2,2.2-0.2c4.2,0,8.1,1.6,11.2,4.5c3.6,3.5,5.3,8.3,4.7,13.3
		c-0.1,0.5-6.1,56.9,5.8,87.4c2.7,7,0.3,14.9-6,19.1C2563.4,1267.7,2560.3,1268.6,2557.1,1268.6z"/>
	<path class="st0" d="M2679.2,1288.1c-2.5,0-5-0.6-7.2-1.7c-0.2-0.1-26-12.7-61-12.7c-10,0-19.8,1-29.3,3c-1.1,0.2-2.2,0.3-3.3,0.3
		c-5.4,0-10.4-2.7-13.4-7.2c-3.6-5.6-3.5-12.6,0.3-18c1.4-2,35.8-49.2,106.8-49.2c1,0,2,0,3,0c0.1,0,0.6,0,0.8,0
		c6.1,0,13.6,3.5,15.6,13.2c0.2,0.7,0.3,1.4,0.3,2.1c0.1,0.6,0.1,1.3,0.2,1.8c0.1,1.6,0.2,3.7,0.4,6.2c0.3,5,0.7,11.7,1.2,18.4
		c0.8,13.4,1.7,26.7,1.7,26.7c0.4,5.7-2.4,11.2-7.2,14.4C2685.4,1287.2,2682.4,1288.1,2679.2,1288.1z"/>
	<g>
		<path class="st3" d="M2464.1,2212.3c15.3-6.3,34.4-5.9,47,5c6.9,5.9,11.2,14.3,14.2,22.8c12.3,34.5,5.7,75.1-17,103.8
			c-11.5,14.5-27,26.2-44.8,31.1s-37.9,2.5-53.1-8.1c-7.1-5-13.2-11.9-16-20.1c-2.1-6.2-2.3-12.9-2-19.4
			C2394.4,2285.8,2423.6,2229,2464.1,2212.3z"/>
		<path class="st4" d="M2502.7,2255.3c-2.8-5.3-10.7-4.5-16.3-2.4c-24.9,9.2-46.5,27.2-59.9,50.1c9.4-4.4,16.5-2.5,26.8-3.2
			c7.5-0.5,16,0.4,21,6.1"/>
	</g>
	<g>
		<path class="st3" d="M1527.6,2212.3c-15.3-6.3-34.4-5.9-47,5c-6.9,5.9-11.2,14.3-14.2,22.8c-12.3,34.5-5.7,75.1,17,103.8
			c11.5,14.5,27,26.2,44.8,31.1c17.8,4.9,37.9,2.5,53.1-8.1c7.1-5,13.2-11.9,16-20.1c2.1-6.2,2.3-12.9,2-19.4
			C1597.3,2285.8,1568.2,2229,1527.6,2212.3z"/>
		<path class="st4" d="M1489.1,2255.3c2.8-5.3,10.7-4.5,16.3-2.4c24.9,9.2,46.5,27.2,59.9,50.1c-9.4-4.4-16.5-2.5-26.8-3.2
			c-7.5-0.5-16,0.4-21,6.1"/>
	</g>
	<path class="st3" d="M1564.1,2315.1c0,0,58.5,307.8,465.5,295.1c-2.5,2.5,346-12.7,407-318c-2.5-2.5,198.4-582.6-436.3-529.1
		c1.3,0-85.2-3.5-85.2-3.5S1391.1,1770.7,1564.1,2315.1z"/>
	<path class="st1" d="M2587.4,2348.5c-14.3-6.3-25.6-18.9-30.3-33.8c-4.8-15.3-2.7-31.8-3-47.9c-0.2-16.1-3.8-33.6-16.4-43.6
		c-10.2-8.1-24.1-9.4-37.1-10.3c-26.8-2-49-2.5-70.7-20.4c-17.8-14.7-30.3-36.2-32.5-59.3c-2.4-25.3,6.1-50.2,11.1-75.1
		c7.8-38.7,7-79-2.2-117.3c-4.4-18.2-10.9-36.5-23.3-50.6c-29-33.1-72-33.9-98.2,1.4c-2.2-44.4-20.1-85.1-22.3-129.5
		c13.6,21.1,39.9,30.1,64.8,33.6c24.9,3.5,50.7,3.3,74.1,12.3c49.5,19,74.9,73.4,90.1,124.1c7.9,26.2,14.4,53,17.2,80.2
		c3,29.7,1.6,60.5,12.1,88.5c13.5,36.1,44.4,62.2,70.6,90.5c26.1,28.3,49.5,65.3,42,103.1c-5.4,27.2-27.9,50.2-55,56.2
		C2584.8,2348.2,2581.2,2350.9,2587.4,2348.5z"/>
	<path class="st1" d="M2268.7,1885c-3.4-30.4-13.2-56.3-40-71.1c-28-15.5-64.9-2.9-86.6,20.6s-31.7,55.3-40.6,86
		c-8.8,30.8-17.6,62.6-37.7,87.6c-33.6,41.7-98.1,54.6-145.1,29c-26.6-14.4-46.7-38.8-73.2-53.4c-58.3-31.9-141.5-1.3-165.2,60.8
		c-12.9,33.8-12.7,77.1-43,96.8c-23.1,15-53.2,8.5-80.4,4.6c-44.4-6.3-98.3,1.1-119.2,40.7c-23.9,45.5-22.2,95.3-34.7,145.1
		c-32-32.8-39.1-57.8-55.5-100.6c-16.4-42.8-15.4-94.9,13.3-130.6c21.8-27.1,55.8-41.2,81.9-64.2c50.8-44.8,65.6-116.9,99.4-175.7
		c63.1-109.7,193.3-168,319.7-173.3c38.8-1.6,77.6,1.1,116.3,3.7c41.8,2.9,83.7,5.8,125.5,8.7c20.6,1.4,41.6,2.9,61.1,9.9
		c22.8,8.2,42.4,23.5,64.3,34c10.8,5.2,22.4,9.3,31.8,16.8c17.7,14,25.1,38,24.3,60.6c-0.5,15.2,0,70.7,0,70.7
		S2278.5,1887.8,2268.7,1885z"/>
	<path class="st5" d="M1962.3,2317.7c0,0,3.4-30.5,34.8-17.8"/>
	<g>
		<path class="st1" d="M1782.5,2170.1c20.5,0.8,40.2,11.2,54,26.5c3.5,3.9,6.7,8.3,7.9,13.5c1.1,5.1-0.2,11.1-4.4,14.2
			c-7.1,5.3-16.9,0.3-24.9-3.6c-16-7.7-34.3-10.5-51.9-7.9c-23.3,3.5-44.1,16-66.3,23.7c-6.4,2.2-14.7,3.4-18.7-1.9
			c-2.1-2.8-2.3-6.7-1.5-10.2c2.2-9.2,10.1-15.8,18-21C1694.6,2203.4,1735.5,2168.2,1782.5,2170.1z"/>
		<path class="st5" d="M1651.5,2170c1,11.8,6.8,23,15.8,30.6c9,7.6,21.1,11.4,32.9,10.4"/>
		<path class="st5" d="M1699,2146.7c0,33.9,27.2,45.5,33,45.7"/>
		<path class="st5" d="M1737.2,2146.3c-1,9,0.9,18.2,5.4,26.1c2.7,4.6,6.6,9,11.8,10"/>
		<path class="st5" d="M1684.9,2094.1c0,0,47.1-45.8,100.5-13"/>
	</g>
	<g>
		<path class="st1" d="M2205.1,2162.5c-20.5,0.8-40.2,11.2-54,26.5c-3.5,3.9-6.7,8.3-7.9,13.5c-1.1,5.1,0.2,11.1,4.4,14.2
			c7.1,5.3,16.9,0.3,24.9-3.6c16-7.7,34.3-10.5,51.9-7.9c23.3,3.5,44.1,16,66.3,23.7c6.4,2.2,14.7,3.4,18.7-1.9
			c2.1-2.8,2.3-6.7,1.5-10.2c-2.2-9.2-10.1-15.8-18-21C2293.1,2195.9,2252.2,2160.7,2205.1,2162.5z"/>
		<path class="st5" d="M2336.2,2162.5c-1,11.8-6.8,23-15.8,30.6c-9,7.6-21.1,11.4-32.9,10.4"/>
		<path class="st5" d="M2288.7,2139.2c0,33.9-27.2,45.5-33,45.7"/>
		<path class="st5" d="M2250.5,2138.7c1,9-0.9,18.2-5.4,26.1c-2.7,4.6-6.6,9-11.8,10"/>
		<path class="st5" d="M2302.8,2086.6c0,0-47.1-45.8-100.5-13"/>
	</g>
	<path class="st6" d="M2093.2,2395.6c11-6,24.8-13.1,35-5.8c5,3.6,7.4,9.9,8.4,16c4,24.7-10.2,48.8-26.9,67.5
		c-24.8,27.8-59.2,50.4-96.4,48.6c-25.1-1.2-48.3-13.3-70.5-25.1c-25-13.3-52.5-29.7-59.5-57.1c-2.7-10.8-0.3-24.6,10-28.8
		c15.5-6.3,43.6,3.9,59.8,6.2c13.5,2,26.9,3.9,40.6,3.3C2027,2418.8,2063.9,2412.3,2093.2,2395.6z"/>
	<path class="st3" d="M2100,2483.3c-48.1-15.4-101.8-12.5-147.9,8.2c-3.3,1.5-6.3,3.3-8.7,5.5c22,11.7,45,23.6,69.9,24.8
		C2045.8,2523.4,2076.3,2506.3,2100,2483.3z"/>
	<g>
		<path class="st7" d="M2259.5,2278.1c-38,7.1-70,37.6-80.9,74.6c-3.2,10.9-4.7,22.7-2.1,33.8c2.3,10,7.7,19,13.7,27.3
			c21.8,30.3,57.1,55.5,94.1,50c10.1-1.5,19.8-5.2,29.2-9.2c10.6-4.5,21.2-9.5,30.4-16.4c17.1-13,28.7-32.9,31.6-54.2
			C2383.8,2320.9,2319.9,2266.8,2259.5,2278.1z"/>
		<path class="st5" d="M2245.1,2330.4c0,10.7,0,21.5,0,32.2"/>
		<path class="st5" d="M2280.7,2328.7c0,7.9,0,15.8,0,23.7"/>
	</g>
	<g>
		<path class="st7" d="M1720.8,2286.4c-38,7.1-70,37.6-80.9,74.6c-3.2,10.9-4.7,22.7-2.1,33.8c2.3,10,7.7,19,13.7,27.3
			c21.8,30.3,57.1,55.5,94.1,50c10.1-1.5,19.8-5.2,29.2-9.2c10.6-4.5,21.2-9.5,30.4-16.4c17.1-13,28.7-32.9,31.6-54.2
			C1845.1,2329.2,1781.2,2275.1,1720.8,2286.4z"/>
		<path class="st5" d="M1706.4,2338.7c0,10.7,0,21.5,0,32.2"/>
		<path class="st5" d="M1742,2337c0,7.9,0,15.8,0,23.7"/>
	</g>
	<path class="st5" d="M2183.6,1783.6c6.5-1.4,12.8,2.6,18,6.6c4.5,3.4,9,7.1,12.8,11.3c9.8,10.7,15.2,24.8,17.7,39.1
		c2.5,14.3,2.3,28.9,2.1,43.4"/>
	<path class="st5" d="M2131.7,1801.2c11.8,4.8,23.6,9.6,34.3,16.5c10.7,6.9,20.3,16,25.8,27.4c4.6,9.7,6.1,20.6,7.1,31.3"/>
	<path class="st5" d="M2096.6,1837.8c13.1,2,26.5,4.1,38.3,10.1c11.8,6,22,16.7,23.9,29.9"/>
	<path class="st5" d="M2106.3,1878.4c11.4-3.9,24.8-1,33.6,7.3"/>
	<path class="st5" d="M2305.7,1900.8c1.1-0.9,2.2-1.9,3.2-2.8c3.2-2.8,6.4-5.6,9.9-8.1c13.1-9.3,29.2-13.3,45-15.8
		c9.3-1.5,18.9-2.5,28.2-1c9.3,1.5,18.5,6,24,13.7"/>
	<path class="st5" d="M2334.3,1919.4c9.4-3.6,18.9-7.2,28.7-9.5c37.3-8.7,78.9,3.7,105.3,31.5"/>
	<path class="st5" d="M2360,1949.3c22.2-7.3,46.6-5.3,69,1.4c22.4,6.6,43.2,17.7,63.8,28.7"/>
	<path class="st5" d="M2397.4,1976.5c29.9,12.6,55.3,35.6,70.8,64.1"/>
	<path class="st0" d="M1206.3,2836.2c-0.3,0-0.7-0.2-0.8-0.5c-24.1-37.5-17.5-90.8,14.9-121.3c12.7-12,28.5-20.3,43.8-28.2
		c8.8-4.6,17.8-9.3,26.2-14.7c32.7-21,55.3-53.5,60.4-87c5.8-37.8-11.3-76.2-41.6-93.5c-3.2-1.8-6.6-3.6-10.2-5.5
		c-18.6-9.7-39.6-20.7-35.8-40.4c1.9-9.8,10.1-16.7,16.9-21.6c12.8-9.1,27.6-16.8,42-24.3c33.4-17.3,64.9-33.6,74.9-67
		c9.4-31.1-5.2-62.8-19.4-93.4l-2.4-5.2c-20.2-44-22.2-76.8-6.1-100.1c18-26,49.5-29.6,82.8-33.5c26.5-3.1,53.8-6.2,74-21.5
		c29.4-22.3,33.6-59.3,38-98.6c2.4-21.2,4.9-43,11.7-62.5c14.2-41,51-74.9,95.9-88.5c41.3-12.5,88.1-8.7,132,10.7
		c11,4.9,21.7,10.7,32.1,16.3c13.8,7.5,28.1,15.2,43,20.7c30.5,11.3,59.6,10.2,79.9-2.8c20.5-13.2,30.6-36.6,40.3-59.2
		c4-9.2,8.1-18.8,12.9-27.6c29.6-54.3,93.1-86.7,154.5-78.7c61.4,8,114.5,55.5,129.2,115.6c0.1,0.5-0.2,1.1-0.7,1.2
		c-0.5,0.1-1.1-0.2-1.2-0.7c-14.5-59.3-67-106.2-127.5-114.1c-60.6-7.9-123.3,24.1-152.5,77.7c-4.7,8.7-8.9,18.2-12.8,27.4
		c-9.9,22.9-20.1,46.6-41.1,60.1c-20.8,13.4-50.6,14.5-81.7,3c-15.1-5.6-29.4-13.3-43.3-20.8c-10.4-5.6-21.1-11.4-32-16.2
		c-43.4-19.2-89.8-22.9-130.6-10.6c-44.3,13.4-80.5,46.8-94.6,87.3c-6.7,19.3-9.2,41-11.6,62.1c-4.5,39.7-8.8,77.1-38.8,99.9
		c-20.6,15.6-48.3,18.8-75,21.9c-32.9,3.8-63.9,7.4-81.4,32.6c-15.7,22.7-13.7,54.8,6.2,98.2l2.4,5.1c13.6,29.6,29.1,63,19.5,94.8
		c-10.3,34.2-43.7,51.5-75.9,68.2c-14.3,7.4-29.1,15.1-41.8,24.1c-6.6,4.7-14.4,11.2-16.1,20.3c-3.6,18.2,16.8,28.9,34.7,38.2
		c3.6,1.9,7.1,3.7,10.3,5.5c31,17.7,48.5,57,42.6,95.5c-5.3,34-28.2,67.1-61.3,88.4c-8.5,5.4-17.5,10.2-26.3,14.8
		c-15.2,7.9-30.8,16.1-43.4,27.9c-31.7,29.9-38.1,82.1-14.5,118.8c0.3,0.5,0.2,1.1-0.3,1.4
		C1206.7,2836.1,1206.5,2836.2,1206.3,2836.2z"/>
	<path class="st0" d="M1392.4,2940.7c-0.2,0-0.3,0-0.4-0.1c-25-12.5-31.7-44.7-25.4-68.7c6.7-25.6,24.9-45.9,43.4-64.1
		c2.8-2.7,5.6-5.4,8.3-8.1c15.7-15.1,32-30.8,42.7-50c20.4-36.6,17.7-84-6.8-118c-3.5-4.9-7.6-9.7-11.5-14.3
		c-8.7-10.3-17.7-20.9-21.8-33.9c-9.2-29.3,7.8-54.9,25.8-82.1c13.5-20.4,27.5-41.5,29.8-64.5c3.1-30.7-14.1-56.5-32.2-83.7
		c-10.3-15.4-20.9-31.4-27.5-48.3c-20.1-51.5,0.6-115.1,47.1-144.9c17.8-11.4,38.8-18.1,59-24.7c29.4-9.5,57.2-18.4,76.8-40.5
		c16.8-18.9,23.6-44.2,30.3-68.7c5.7-21.1,11.6-42.8,23.8-61c34.1-50.8,108.4-58.6,164.2-39.9c15.5,5.2,30.5,12,45.1,18.6
		c15.6,7.1,31.7,14.4,48.2,19.6c22.1,7,63.9,15.4,96.3-7c28.6-19.8,43.3-49.4,59-80.7c17.8-35.7,36.2-72.6,76.9-93.2
		c24.5-12.4,52.8-16.4,79.7-11.1c14.1,2.8,25.1,7.6,33.4,14.7c23,19.6,23.7,53.9,22.3,78c0,0.5-0.5,1-1.1,0.9c-0.6,0-1-0.5-0.9-1.1
		c2.2-37.6-4.6-61.9-21.6-76.4c-8.1-6.9-18.7-11.5-32.5-14.2c-26.5-5.2-54.4-1.3-78.4,10.9c-40,20.3-58.3,56.9-76,92.3
		c-15.1,30.2-30.7,61.4-59.6,81.5c-33.1,22.9-75.6,14.4-98,7.3c-16.6-5.3-32.8-12.6-48.4-19.7c-14.5-6.6-29.6-13.4-44.9-18.6
		c-55.1-18.4-128.3-10.8-161.9,39.1c-12,17.9-17.9,39.5-23.6,60.4c-6.7,24.7-13.6,50.2-30.7,69.5c-19.9,22.5-49.3,31.9-77.7,41.1
		c-20.1,6.5-40.9,13.2-58.5,24.4c-45.8,29.3-66.1,91.9-46.3,142.5c6.5,16.7,17.1,32.6,27.3,47.9c17.5,26.4,35.7,53.6,32.5,85.1
		c-2.4,23.5-16.5,44.8-30.1,65.4c-17.7,26.7-34.5,52-25.5,80.4c4,12.6,12.8,23.1,21.4,33.2c3.9,4.7,8,9.5,11.6,14.5
		c24.9,34.6,27.6,82.9,6.9,120.1c-10.8,19.4-27.2,35.2-43,50.4c-2.8,2.7-5.6,5.4-8.3,8.1c-18.4,18-36.3,38.1-42.9,63.2
		c-6.1,23.2,0.4,54.3,24.4,66.4c0.5,0.2,0.7,0.8,0.4,1.3C1393.1,2940.5,1392.8,2940.7,1392.4,2940.7z"/>
	<path class="st0" d="M2787.8,2705.5c0.6-0.5,1.1-1,1.7-1.5c-4.6-20.3-7.8-40.9-9.6-61.5c-2-23.9-5.1-60.1-31.3-71.4
		c-10.4-4.5-22.5-3.9-34.1-3.3c-14.6,0.8-28.5,1.5-38.7-7.5c-15-13.2-10.4-36.9-4-58.3c6.1-20.4,9.5-47.2-8.7-59.2
		c-9.9-6.5-22-5.4-33.8-4.3c-7.8,0.7-15.9,1.5-23.3,0c-22.6-4.4-35.2-27.8-37.5-47.6c-2.3-20,3.1-40.2,8.4-59.7l1.3-4.9
		c13.3-50.2,19.8-117.1-24.8-150.9c-10.7-8.1-23.5-13.3-35.8-18.3c-16.5-6.7-32-13-43.4-25.6c-24.7-27.4-16.6-67.4-8.9-106.1
		c1-5.2,2.1-10.4,3-15.4c9.8-52.7,2.3-99.9-21-133.1c-25.4-36.1-80.4-58.5-121.9-34.2c-0.5,0.3-0.6,0.9-0.4,1.4
		c0.3,0.5,0.9,0.6,1.4,0.4c40.5-23.7,94.4-1.8,119.2,33.7c23,32.7,30.3,79.5,20.7,131.6c-0.9,5-2,10.2-3,15.4
		c-7.5,37.3-16,79.7,9.3,107.8c11.7,12.9,28.1,19.6,44.1,26.1c12.2,5,24.9,10.1,35.4,18c43.7,33.1,37.2,99.2,24,148.8l-1.3,4.9
		c-5.3,19.7-10.7,40.1-8.4,60.5c2.3,20.5,15.5,44.7,39.1,49.3c7.7,1.5,16,0.7,23.9,0c11.9-1.1,23.1-2.2,32.5,4
		c17.2,11.3,13.7,37.2,7.8,57c-6.6,22-11.2,46.4,4.6,60.4c10.8,9.5,25.7,8.7,40.1,8c11.4-0.6,23.2-1.2,33.2,3.1
		c23.2,10,27.5,38.7,30.1,69.7C2779.7,2663.7,2783,2684.8,2787.8,2705.5z"/>
	<path class="st0" d="M1288.6,2212.9c-0.5,0-1-0.4-1-1c-0.6-32.9,15.1-67.4,43.2-94.7c27.6-26.8,62.9-43.5,90.5-55l5.9-2.4
		c27.6-11.4,56.2-23.2,71.6-48c13.9-22.4,13.3-49.9,12.8-76.6c-0.2-9.5-0.4-19.4,0.1-28.9c4.1-84,69.2-160.5,151.5-178.1
		c33-7,67-5.4,99.9-3.8c32.5,1.6,66,3.2,98.4-3.5c13-2.7,31.1-7.7,44-16.4c48.1-32.4,91.1-50.8,124.4-53.2
		c85.9-6.1,165.7,21.2,213.4,73c0.4,0.4,0.3,1-0.1,1.4c-0.4,0.4-1,0.3-1.4-0.1c-47.3-51.4-126.5-78.5-211.8-72.4
		c-33,2.3-75.7,20.6-123.5,52.8c-13.1,8.8-31.5,14-44.7,16.7c-32.7,6.8-66.4,5.2-98.9,3.6c-32.8-1.6-66.7-3.2-99.4,3.7
		c-81.4,17.3-145.8,93.1-149.9,176.2c-0.5,9.4-0.3,19.3-0.1,28.8c0.5,27,1.1,54.8-13.1,77.7c-15.7,25.3-44.6,37.2-72.5,48.8
		l-5.9,2.4c-27.5,11.4-62.5,28-89.9,54.6c-27.6,26.8-43.2,60.8-42.6,93.2C1289.6,2212.4,1289.2,2212.9,1288.6,2212.9
		C1288.6,2212.9,1288.6,2212.9,1288.6,2212.9z"/>
	<path class="st0" d="M2768,2521.9C2768,2521.9,2768,2521.9,2768,2521.9c-0.6,0-1-0.5-1-1c0.2-17.9,0.3-36.3-4.5-53.8
		c-5.4-19.3-16.8-34.5-31.4-41.6c-9.9-4.8-21.8-6.4-33.2-7.9c-18.1-2.4-35.1-4.6-45.3-18.6c-13.5-18.6-3.7-43,5-64.6
		c1.2-3,2.4-6,3.5-8.9c10.4-27.2,12.4-55.9,5.7-81c-7.4-27.6-25.9-51.1-49.4-62.9c-7.5-3.7-15.6-6.4-23.4-9
		c-6.4-2.1-13.1-4.3-19.4-7.1c-21-9.3-37.8-25.3-45.9-43.8c-10.5-24-7.4-51-4.4-77.1c0.5-4.1,0.9-8.1,1.4-12.2
		c6.5-63.5-3.3-120.4-28.5-164.4c-29.8-52.1-82.9-85.5-135.7-85.5c-0.4,0-0.7,0-1.1,0c0,0,0,0,0,0c-0.5,0-1-0.4-1-1c0-0.6,0.4-1,1-1
		c0.4,0,0.7,0,1.1,0c53.5,0,107.3,33.9,137.5,86.5c25.4,44.4,35.3,101.7,28.8,165.6c-0.4,4-0.9,8.1-1.4,12.2
		c-3,25.9-6.1,52.6,4.2,76.1c7.9,18.1,24.3,33.7,44.9,42.8c6.2,2.7,12.8,4.9,19.2,7c7.9,2.6,16.1,5.3,23.7,9.1
		c24,12,42.9,36,50.4,64.1c6.8,25.5,4.8,54.7-5.7,82.2c-1.1,2.9-2.3,5.9-3.5,8.9c-8.5,21.1-18.1,45-5.2,62.7
		c9.7,13.3,26.4,15.5,44,17.8c11.6,1.5,23.6,3.1,33.8,8.1c15,7.3,26.9,23,32.4,42.8c5,17.8,4.8,36.4,4.6,54.4
		C2769,2521.4,2768.5,2521.9,2768,2521.9z"/>
	<g>
		<path class="st0" d="M2681.6,2225.2l-0.6-15.4l-8.1-24.8l-14.8-25.8l-4.1-32.4l-2.9-34.7l0.3-33.1l2.2-34l2.5-8.6l13.7,5.4
			l7.6,9.2l4.1,15.3l-1,16.9l2.9,16.9l13.7,20l6-7l7-36.6l7-40.1l7.9-42.9l4.1-20l8.9-11.8l11.8,1.4c0,0,6.4,12.2,6.4,14.5
			c0,2.2-0.6,26.7-0.6,26.7l1.9,49v28.3l6.4,6.7l10.8-5.7l14.6-19.4l19.4-28.9l17.2-25.8l14.9-16.9l13.4-2.2l4.5,6
			c0,0-0.6,14.6,0,15.6s-19.1,36.3-19.1,36.3l-23.2,35.9l-15.6,28l2.5,7.6l17.2-5.1l21.6-23.2l28.9-25.4l17.2-14l10.2,3.2l-2.2,17.5
			l-27.7,37.2l-23.2,27l-10.2,12.4v9.5l14.9-2.9l21-7.9l22.9-8.3l13.4-1.3l6,1v14.4l-28.9,24.1l-41,21.9l-30.8,21.6l-27,22.9
			l-29.9,17.5l-17.8,8.3l-17,14l-9.7-16.9l-24.2-15.6L2681.6,2225.2z"/>
		<path class="st5" d="M2725.4,2176.1c0,0,12.4-39.9-26.7-72.9c-0.8,0.8-18.7-17.8-18.7-38.2c-0.8,0,10-44.1-24.7-49.2
			c0.1,0.8-16,107.7,10.2,155.2c26.3,47.5,11.9,54.3,11.9,54.3"/>
		<path class="st5" d="M2702,2102.3c4.4-48,15.8-95,27.1-141.8c1-4.1,2.1-8.4,4.5-11.8c2.5-3.5,6.7-6,10.9-5.3
			c3.9,0.7,6.8,4,8.5,7.6c3,6.4,3.1,13.7,3.2,20.8c0.1,26.5,0.2,53.1,0.3,79.6c0,0-0.9,10.3,2.8,15c1.7,2.2,4.7,3.1,7.2,2.1
			c2.6-0.9,4.5-3,6.4-5.1c12.9-14.4,24.3-30.1,34.1-46.7c6-10.2,33.2-55.8,49.5-47.1c24.1,16.1-65.9,120.4-54.2,127.7
			c5.1,2.7,14.1-1.9,18.2-6c18.7-19.3,64.4-70.7,76.3-58.4c15,15.5-49.3,76.6-59.1,91.2c-2.2,3.3-4.1,7.9-1.6,11
			c2.5,3.1,7.5,2.1,11.3,0.8c14.5-5,61.6-27.3,68.2-14.5c11,21.4-77.3,55.5-101.4,78.2c-13,12.2-18.5,19-45.5,33.7
			c-17.1,9.3-35.2,15.1-45.9,31.3"/>
		<path class="st5" d="M2742.3,2185.1c8.5-15.7,26.8-25.7,44.6-24.2"/>
	</g>
	<g>
		<path class="st0" d="M1371.9,2257.6l0.6-15.4l8.1-24.8l14.8-25.8l4.1-32.4l2.9-34.7l-0.3-33.1l-2.2-34l-2.5-8.6l-13.7,5.4
			l-7.6,9.2l-4.1,15.3l1,16.9l-2.9,16.9l-13.7,20l-6-7l-7-36.6l-7-40.1l-7.9-42.9l-4.1-20l-8.9-11.8l-11.8,1.4
			c0,0-6.4,12.2-6.4,14.5s0.6,26.7,0.6,26.7l-1.9,49v28.3l-6.4,6.7l-10.8-5.7l-14.6-19.4l-19.4-28.9l-17.2-25.8l-14.9-16.9
			l-13.4-2.2l-4.5,6c0,0,0.6,14.6,0,15.6c-0.6,1,19.1,36.3,19.1,36.3l23.2,35.9l15.6,28l-2.5,7.6l-17.2-5.1l-21.6-23.2l-28.9-25.4
			l-17.2-14l-10.2,3.2l2.2,17.5l27.7,37.2l23.2,27l10.2,12.4v9.5l-14.9-2.9l-21-7.9l-22.9-8.3l-13.4-1.3l-6,1v14.4l28.9,24.1
			l41,21.9l30.8,21.6l27,22.9l29.9,17.5l17.8,8.3l17,14l9.7-16.9l24.2-15.6L1371.9,2257.6z"/>
		<path class="st5" d="M1328.1,2208.4c0,0-12.4-39.9,26.7-72.9c0.8,0.8,18.7-17.8,18.7-38.2c0.8,0-10-44.1,24.7-49.2
			c-0.1,0.8,16,107.7-10.2,155.2c-26.3,47.5-11.9,54.3-11.9,54.3"/>
		<path class="st5" d="M1351.5,2134.6c-4.4-48-15.8-95-27.1-141.8c-1-4.1-2.1-8.4-4.5-11.8c-2.5-3.5-6.7-6-10.9-5.3
			c-3.9,0.7-6.8,4-8.5,7.6c-3,6.4-3.1,13.7-3.2,20.8c-0.1,26.5-0.2,53.1-0.3,79.6c0,0,0.9,10.3-2.8,15c-1.7,2.2-4.7,3.1-7.3,2.1
			c-2.6-0.9-4.5-3-6.4-5.1c-12.9-14.4-24.3-30.1-34.1-46.7c-6-10.2-33.2-55.8-49.5-47.1c-24.1,16.1,65.9,120.4,54.2,127.7
			c-5.1,2.7-14.1-1.9-18.2-6c-18.7-19.3-64.4-70.7-76.3-58.4c-15,15.5,49.3,76.6,59.1,91.2c2.2,3.3,4.1,7.9,1.6,11
			c-2.5,3.1-7.5,2.1-11.3,0.8c-14.5-5-61.6-27.3-68.2-14.5c-11,21.4,77.3,55.5,101.4,78.2c13,12.2,18.5,19,45.5,33.7
			c17.1,9.3,35.2,15.1,45.9,31.3"/>
		<path class="st5" d="M1311.2,2217.4c-8.5-15.7-26.8-25.7-44.6-24.2"/>
	</g>
	<path class="st8" d="M2670.8,2225.2c0,0-294.3,478.3-505,600.4c-0.4,0-42.8-18.7-42.8-18.7h-212l-50.6,9.6
		c0,0-332.7-223.3-471.7-565c0-2.5-67.8,18.4-71.2,45.2c0-3.7,463,783.3,393.5,1454.9c-3.4-3.4,560.5,0,560.5,0
		s-38.2-617.3,453.7-1477.2C2728.4,2276.1,2708.1,2228.6,2670.8,2225.2z"/>
	<g>
		<path class="st1" d="M1746.1,3594.1c9.6,0.8,15.3,5.2,15.5,14.4c0.2,9.1-4.9,14.5-14,14.7c-9.2,0.2-14.4-4.9-14.8-14
			C1732.4,3600,1738.2,3595.6,1746.1,3594.1z"/>
		<path class="st1" d="M1380.7,2348.7c8.9,0.8,14.5,5.2,14.5,14.5c0,9.1-5.1,14.4-14.2,14.5c-9.2,0.1-14.4-5.1-14.5-14.2
			C1366.3,2354.3,1371.8,2349.7,1380.7,2348.7z"/>
		<path class="st1" d="M1468.8,2437c-1.2,8.7-5.7,14.2-14.9,14c-9.2-0.2-14.3-5.6-14.1-14.6c0.1-9.1,5.6-14.2,14.7-14.1
			C1463.6,2422.3,1468,2428,1468.8,2437z"/>
		<path class="st1" d="M1892.6,3594.1c9.6,0.9,15.3,5.1,15.4,14.4c0.2,9.1-4.8,14.5-14,14.7c-9.1,0.2-14.4-4.9-14.8-14
			C1879,3600,1884.8,3595.7,1892.6,3594.1z"/>
		<path class="st1" d="M2054.9,3609.1c-1.1,8.8-5.6,14.3-14.8,14.2c-9.2-0.1-14.3-5.5-14.3-14.5c0.1-9.1,5.5-14.3,14.5-14.3
			C2049.6,3594.5,2054.1,3600.1,2054.9,3609.1z"/>
		<path class="st1" d="M2567.7,2510c-0.9,9-5.6,14.4-14.7,14.3c-9.1-0.1-14.4-5.4-14.3-14.5c0.1-9.1,5.3-14.3,14.5-14.3
			C2562.5,2495.6,2566.9,2501.1,2567.7,2510z"/>
		<path class="st1" d="M2494.6,2582.6c-1,9.6-5.6,15.1-14.8,15c-9.1-0.1-14.3-5.4-14.3-14.5c0-9.1,5.4-14.3,14.5-14.3
			C2489.2,2568.7,2493.4,2574.5,2494.6,2582.6z"/>
		<path class="st1" d="M2201.4,3609.4c-1.1,8.7-5.7,14.1-15,13.8c-9.2-0.3-14.2-5.7-14-14.7c0.2-9.1,5.7-14.2,14.8-14
			C2196.3,3594.7,2200.8,3600.3,2201.4,3609.4z"/>
		<path class="st1" d="M1526.1,2671c-8.6-1.4-13.8-6.5-13.1-15.5c0.6-9,6.2-14,15.3-13.4c9.1,0.6,13.9,6.2,13.4,15.3
			C1541.2,2666.6,1535.4,2670.7,1526.1,2671z"/>
		<path class="st1" d="M2421.3,2656.6c-1.4,9.3-6.1,14.6-15.3,14.2c-9.2-0.4-14.2-5.9-13.8-14.9c0.3-9,5.8-14,15-13.8
			C2416.5,2642.4,2420.4,2648.3,2421.3,2656.6z"/>
		<path class="st1" d="M1820,3667.5c9.1,0.7,14.7,5,14.9,14.3c0.2,9.2-4.9,14.5-14,14.7c-9.1,0.2-14.5-5-14.8-14
			C1805.8,3673.4,1811.2,3668.7,1820,3667.5z"/>
		<path class="st1" d="M1601.2,2744.3c-9.2-0.6-14.8-5.1-14.9-14.3c-0.2-9.1,5-14.5,14-14.7c9.1-0.2,14.4,4.9,14.7,14
			C1615.3,2738.6,1609.9,2743.2,1601.2,2744.3z"/>
		<path class="st1" d="M2333.8,2715c8.6,1.2,14.1,5.8,13.9,15c-0.3,9.1-5.6,14.2-14.7,14c-9.2-0.2-14.2-5.7-14.1-14.7
			C2319.1,2720.2,2324.8,2715.8,2333.8,2715z"/>
		<path class="st1" d="M2479.9,2715c8.7,1,14.4,5.4,14.3,14.6c0,9.1-5.1,14.4-14.3,14.4c-9.2,0.1-14.4-5.2-14.5-14.3
			C2465.3,2720.6,2470.9,2716,2479.9,2715z"/>
		<path class="st1" d="M1967.4,3667.5c8.8,1.1,14.2,5.6,14,14.9c-0.2,9.2-5.6,14.3-14.6,14.1c-9.1-0.1-14.3-5.6-14.1-14.7
			C1952.7,3672.7,1958.3,3668.3,1967.4,3667.5z"/>
		<path class="st1" d="M1688.6,2802.6c-1.1,9.6-5.8,15-15,14.8c-9.1-0.2-14.3-5.6-14.1-14.7c0.2-9.1,5.5-14.2,14.6-14.1
			C1683.5,2788.7,1687.6,2794.5,1688.6,2802.6z"/>
		<path class="st1" d="M2113,3667.5c9.1,0.7,14.7,5,14.9,14.3c0.2,9.2-4.9,14.5-14,14.7c-9.1,0.2-14.5-5-14.8-14
			C2098.8,3673.4,2104.3,3668.7,2113,3667.5z"/>
		<path class="st1" d="M2274.7,2802.3c-0.6,9.2-5.1,14.8-14.2,15c-9.1,0.2-14.5-4.9-14.8-14c-0.3-9,4.8-14.5,14-14.8
			C2268.9,2788.3,2273.5,2793.7,2274.7,2802.3z"/>
		<path class="st1" d="M2421.3,2802.7c-1.2,9.5-5.9,14.9-15.1,14.6c-9.1-0.3-14.3-5.7-14-14.8c0.2-9.1,5.6-14.1,14.8-14
			C2416.3,2788.7,2420.3,2794.6,2421.3,2802.7z"/>
		<path class="st1" d="M1600.9,2861.5c8.7,1.1,14.2,5.6,14.1,14.9c-0.1,9.2-5.4,14.3-14.5,14.2c-9.1-0.1-14.3-5.5-14.3-14.5
			C1586.3,2866.9,1591.9,2862.4,1600.9,2861.5z"/>
		<path class="st1" d="M1762,2875.9c-1.2,9.4-5.8,14.9-15,14.7c-9.1-0.2-14.3-5.6-14.1-14.7c0.1-9.1,5.6-14.2,14.7-14.2
			C1756.7,2861.9,1760.8,2867.8,1762,2875.9z"/>
		<path class="st1" d="M1893.8,2891c-9.4-1.3-14.8-6-14.5-15.2c0.3-9.1,5.8-14.2,14.8-14c9.1,0.3,14.1,5.7,13.9,14.8
			C1907.9,2886,1901.9,2890,1893.8,2891z"/>
		<path class="st1" d="M2040.4,2890.9c-9-0.9-14.6-5.4-14.6-14.5c0-9.1,5.2-14.4,14.3-14.5c9.1-0.1,14.4,5.1,14.5,14.3
			C2054.8,2885.3,2049.3,2889.9,2040.4,2890.9z"/>
		<path class="st1" d="M2186.7,2890.9c-8.9-1-14.4-5.6-14.3-14.8c0.1-9.1,5.4-14.4,14.5-14.3c9.1,0.1,14.3,5.3,14.3,14.5
			C2201.1,2885.6,2195.6,2890,2186.7,2890.9z"/>
		<path class="st1" d="M2333.9,2861.5c8.6,1.3,14.1,5.9,13.8,15.1c-0.3,9.1-5.7,14.2-14.8,14c-9.1-0.2-14.2-5.8-14-14.8
			C2319.1,2866.6,2324.9,2862.3,2333.9,2861.5z"/>
		<path class="st1" d="M1674.8,2964.1c-9.3-0.5-14.9-4.9-15.2-14c-0.3-9,4.7-14.6,13.8-14.9c9.1-0.3,14.5,4.6,14.9,13.8
			C1688.7,2958.1,1683.4,2962.9,1674.8,2964.1z"/>
		<path class="st1" d="M1820.4,2964.1c-8.9-0.9-14.4-5.6-14.3-14.7c0.1-9.1,5.3-14.3,14.5-14.3c9.1,0.1,14.3,5.3,14.3,14.4
			C1834.8,2958.8,1829.3,2963.3,1820.4,2964.1z"/>
		<path class="st1" d="M1968,2964.2c-9.8-0.8-15.3-5.4-15.4-14.5c0-9.1,5.1-14.4,14.2-14.5c9.1-0.1,14.3,5,14.5,14.2
			C1981.5,2958.7,1975.8,2962.9,1968,2964.2z"/>
		<path class="st1" d="M2113.4,2964.1c-8.9-0.9-14.4-5.6-14.3-14.7c0.1-9.1,5.3-14.3,14.5-14.3c9.1,0.1,14.3,5.3,14.3,14.4
			C2127.9,2958.8,2122.3,2963.3,2113.4,2964.1z"/>
		<path class="st1" d="M2259.6,2964.1c-8.8-1.1-14.2-5.8-13.9-15c0.3-9.1,5.6-14.2,14.8-14c9.1,0.2,14.2,5.6,14,14.7
			C2274.2,2959.1,2268.6,2963.4,2259.6,2964.1z"/>
		<path class="st1" d="M2259.9,3697c-9.2-1.4-14.6-6.2-14.3-15.3c0.4-9,5.7-14.1,14.8-13.8c9.2,0.3,13.7,5.6,13.6,14.8
			C2273.9,3692.3,2268.1,3695.9,2259.9,3697z"/>
		<path class="st1" d="M1761.9,3023c-1.1,8.8-5.6,14.3-14.8,14.1c-9.2-0.1-14.3-5.5-14.2-14.5c0.1-9.1,5.5-14.3,14.6-14.3
			C1756.5,3008.4,1761,3014,1761.9,3023z"/>
		<path class="st1" d="M1908.3,3023c-1,8.8-5.5,14.3-14.8,14.1c-9.2-0.1-14.3-5.5-14.2-14.5c0.1-9.1,5.5-14.3,14.6-14.2
			C1903,3008.4,1907.6,3014,1908.3,3023z"/>
		<path class="st1" d="M2039.6,3008.1c9,0.6,14.7,4.9,15,14.1c0.3,9.1-4.6,14.6-13.8,14.9c-9.1,0.4-14.6-4.7-15-13.8
			C2025.4,3014.1,2030.9,3009.4,2039.6,3008.1z"/>
		<path class="st1" d="M2201.5,3023c-1.4,9.2-6.1,14.5-15.3,14.2c-9.2-0.4-14.1-5.9-13.8-14.9c0.3-9.1,5.9-14.1,15-13.8
			C2196.6,3008.6,2200.7,3014.6,2201.5,3023z"/>
		<path class="st1" d="M2332.8,3008.1c8.9,0.7,14.7,5.1,14.9,14.3c0.2,9.1-4.8,14.5-14,14.8c-9.1,0.3-14.5-4.9-14.8-13.9
			C2318.6,3014,2324.1,3009.3,2332.8,3008.1z"/>
		<path class="st1" d="M1674,3110.7c-8.8-1-14.5-5.5-14.5-14.6c0-9.1,5.2-14.4,14.3-14.4c9.1,0,14.3,5.1,14.4,14.3
			C1688.4,3105.2,1682.8,3109.7,1674,3110.7z"/>
		<path class="st1" d="M1835.1,3095.4c-0.6,9.2-5,14.8-14.2,15c-9.1,0.2-14.5-4.9-14.8-14c-0.3-9,4.8-14.5,14-14.8
			C1829.3,3081.4,1833.9,3086.7,1835.1,3095.4z"/>
		<path class="st1" d="M1966.4,3081.4c9.1,0.7,14.7,5,14.9,14.2c0.2,9.1-4.9,14.5-13.9,14.8c-9.1,0.3-14.5-4.9-14.8-14
			C1952.3,3087.3,1957.7,3082.6,1966.4,3081.4z"/>
		<path class="st1" d="M2128.1,3096.3c-1,8.9-5.7,14.3-14.9,14.1c-9.1-0.2-14.3-5.6-14.1-14.7c0.2-9.1,5.5-14.2,14.6-14.1
			C2123,3081.8,2127.4,3087.4,2128.1,3096.3z"/>
		<path class="st1" d="M2274.7,3096.3c-1,8.9-5.7,14.3-14.9,14.1c-9.1-0.2-14.3-5.6-14.1-14.7c0.2-9.1,5.5-14.2,14.6-14.1
			C2269.6,3081.8,2273.9,3087.4,2274.7,3096.3z"/>
		<path class="st1" d="M1761.9,3169.2c-0.9,8.9-5.4,14.5-14.6,14.5c-9.1,0-14.4-5.3-14.5-14.3c-0.1-9.1,5.3-14.4,14.3-14.5
			C1756.3,3154.8,1760.9,3160.4,1761.9,3169.2z"/>
		<path class="st1" d="M1908.4,3169.2c-0.9,9-5.4,14.5-14.6,14.5c-9.1,0-14.4-5.3-14.5-14.3c-0.1-9.1,5.3-14.4,14.3-14.5
			C1902.8,3154.8,1907.4,3160.3,1908.4,3169.2z"/>
		<path class="st1" d="M2054.9,3169.9c-1.2,8.7-5.9,14.1-15.1,13.8c-9.1-0.3-14.2-5.8-14-14.8c0.2-9.1,5.8-14.2,14.8-14
			C2049.8,3155.1,2054.2,3160.8,2054.9,3169.9z"/>
		<path class="st1" d="M2201.4,3169.5c-1,8.9-5.6,14.3-14.8,14.2c-9.1-0.1-14.3-5.5-14.2-14.5c0.1-9.1,5.5-14.3,14.6-14.3
			C2196.1,3154.9,2200.6,3160.5,2201.4,3169.5z"/>
		<path class="st1" d="M2332.6,3184c-8.7-1.3-14.1-6.1-13.7-15.2c0.4-9.1,5.9-14.2,15-13.8c9.1,0.3,14.1,5.9,13.8,15
			C2347.4,3179.1,2341.7,3183.4,2332.6,3184z"/>
		<path class="st1" d="M1835.1,3242.7c-1,8.9-5.5,14.3-14.7,14.2c-9.2-0.1-14.3-5.4-14.3-14.4c0.1-9.1,5.3-14.3,14.5-14.3
			C1829.8,3228.2,1834.2,3233.8,1835.1,3242.7z"/>
		<path class="st1" d="M1967.1,3257.2c-9-0.8-14.5-5.4-14.5-14.6c0-9.1,5.2-14.4,14.3-14.4c9.1,0,14.3,5.1,14.4,14.3
			C1981.4,3251.7,1975.9,3256.2,1967.1,3257.2z"/>
		<path class="st1" d="M2113.2,3227.9c9.4,1.2,14.9,5.7,14.7,15c-0.2,9.1-5.5,14.2-14.6,14.1c-9.2-0.1-14.2-5.6-14.2-14.6
			C2099.2,3233.1,2105,3228.9,2113.2,3227.9z"/>
		<path class="st1" d="M2258.7,3227.9c9.9,0.7,15.5,5.1,15.7,14.3c0.2,9.1-4.8,14.5-14,14.7c-9.1,0.2-14.4-4.9-14.8-14
			C2245.3,3233.7,2251,3229.3,2258.7,3227.9z"/>
		<path class="st1" d="M1748,3301.1c8.6,1.4,14,6.1,13.6,15.3c-0.4,9.1-5.8,14.1-15,13.8c-9.2-0.3-14.1-5.9-13.8-14.9
			C1733.1,3306.1,1738.9,3301.8,1748,3301.1z"/>
		<path class="st1" d="M1908.3,3316.5c-1.2,8.7-5.8,14-15.1,13.7c-9.2-0.3-14.2-5.8-14-14.8c0.2-9.1,5.8-14.2,14.8-14
			C1903.3,3301.6,1907.7,3307.3,1908.3,3316.5z"/>
		<path class="st1" d="M2055,3315.3c-1.1,9.5-5.6,15-14.9,14.9c-9.2-0.1-14.3-5.4-14.3-14.5c0-9.1,5.4-14.3,14.5-14.3
			C2049.6,3301.4,2053.8,3307.2,2055,3315.3z"/>
		<path class="st1" d="M2186,3330.4c-8.7-1.2-14-6.1-13.6-15.2c0.4-9.1,5.9-14.2,15-13.8c9,0.4,14.1,5.8,13.8,15
			C2200.8,3325.6,2195.1,3329.9,2186,3330.4z"/>
		<path class="st1" d="M1835.2,3388.7c-1.1,9.6-5.8,15-15,14.8c-9.1-0.2-14.3-5.6-14.1-14.7c0.2-9.1,5.5-14.2,14.6-14.1
			C1830,3374.8,1834.1,3380.7,1835.2,3388.7z"/>
		<path class="st1" d="M1967,3403.8c-8.8-1-14.5-5.5-14.5-14.6c0-9.1,5.2-14.4,14.3-14.4c9.1,0,14.3,5.1,14.4,14.3
			C1981.5,3398.3,1975.9,3402.7,1967,3403.8z"/>
		<path class="st1" d="M2128.1,3389.4c-1,8.9-5.7,14.3-14.9,14.1c-9.1-0.2-14.3-5.6-14.1-14.7c0.2-9.1,5.5-14.2,14.6-14.1
			C2123,3374.9,2127.4,3380.4,2128.1,3389.4z"/>
		<path class="st1" d="M2260.7,3403.8c-9-0.6-14.8-5-15.1-14.1c-0.3-9,4.7-14.6,13.8-14.9c9.1-0.3,14.5,4.6,14.9,13.8
			C2274.8,3397.8,2269.4,3402.4,2260.7,3403.8z"/>
		<path class="st1" d="M1761.9,3462.5c-1,8.8-5.6,14.4-14.8,14.3c-9.1-0.1-14.4-5.4-14.3-14.5c0-9.1,5.4-14.3,14.5-14.3
			C1756.5,3448,1761,3453.6,1761.9,3462.5z"/>
		<path class="st1" d="M1908.3,3462.7c-1.1,8.8-5.7,14.2-14.9,14c-9.1-0.2-14.3-5.6-14.1-14.7c0.1-9.1,5.6-14.3,14.7-14.1
			C1903.1,3448.1,1907.6,3453.7,1908.3,3462.7z"/>
		<path class="st1" d="M2039.9,3447.7c8.9,0.8,14.6,5.1,14.8,14.3c0.2,9.1-4.9,14.5-14,14.7c-9.1,0.2-14.5-4.9-14.8-14
			C2025.6,3453.5,2031.1,3448.9,2039.9,3447.7z"/>
		<path class="st1" d="M2186.1,3447.6c9.4,1,15,5.4,15.1,14.6c0,9.2-5.1,14.4-14.2,14.5c-9.1,0.1-14.4-5.2-14.6-14.2
			C2172.2,3453.2,2178,3448.9,2186.1,3447.6z"/>
		<path class="st1" d="M1835.1,3534c-0.6,10-4.9,15.7-14.1,16c-9.1,0.3-14.6-4.7-14.9-13.8c-0.3-9,4.7-14.5,13.8-14.9
			C1829.3,3520.8,1833.5,3526.5,1835.1,3534z"/>
		<path class="st1" d="M1966.4,3521c9.1,0.6,14.7,4.9,14.9,14.2c0.2,9.1-4.8,14.5-13.9,14.8c-9.1,0.3-14.5-4.9-14.8-13.9
			C1952.3,3526.9,1957.7,3522.2,1966.4,3521z"/>
		<path class="st1" d="M2128.1,3536c-1.1,8.8-5.7,14.2-14.9,14c-9.2-0.2-14.3-5.6-14.1-14.6c0.2-9.1,5.5-14.2,14.7-14.1
			C2123,3521.4,2127.4,3527,2128.1,3536z"/>
		<path class="st1" d="M2260.2,3521c8.8,1,14.3,5.5,14.2,14.7c-0.1,9.1-5.3,14.3-14.4,14.3c-9.2,0-14.3-5.4-14.3-14.4
			C2245.6,3526.4,2251.2,3521.8,2260.2,3521z"/>
		<path class="st1" d="M2406.4,2964c-8.2-0.4-13.8-4.8-14.2-13.9c-0.3-9,4.6-14.5,13.7-14.9c9-0.4,15,4.4,14.9,13.6
			C2420.6,2956.9,2416.9,2963.5,2406.4,2964z"/>
		<path class="st1" d="M2625.2,2451.2c-8.8-1.5-13.9-6.6-13.3-15.7c0.7-9.1,6.8-15,15.4-12.9c5.2,1.3,12.6,8.3,12.6,12.7
			C2639.9,2442.6,2636.2,2451.5,2625.2,2451.2z"/>
		<path class="st1" d="M1820,2817.7c-8.7-1.2-15.2-6.2-13.5-14.9c1.1-5.3,7.7-9.5,11.8-14.2c5.5,4.9,14.2,9,15.9,15
			C1836.5,2812,1828.9,2816.9,1820,2817.7z"/>
		<path class="st1" d="M1531.2,2525c-12.7-1.4-18.2-5.9-18.3-15.1c-0.1-8.5,5.4-15.9,13-13.7c6.3,1.8,12.4,9.7,14.9,16.3
			C1541.9,2515.4,1533.9,2521.8,1531.2,2525z"/>
		<path class="st1" d="M1737.3,2718.9c7.9,6.9,14.7,12.9,21.9,19.2c-7.9,7.9-15.6,8.6-22.6,1.3
			C1730.5,2733.1,1731.3,2726.2,1737.3,2718.9z"/>
		<path class="st1" d="M1611,2593.5c-8.6,6.2-15.8,5.8-21.5-1.1c-5.3-6.3-4.9-13.1,2.1-20.7
			C1598.1,2579.1,1604.1,2585.8,1611,2593.5z"/>
		<path class="st1" d="M1732.8,3752c9.6-15.1,19.5-15,28.4,0C1751.8,3752,1742.9,3752,1732.8,3752z"/>
		<path class="st1" d="M1906.6,3752.2c-8.7,0-17.4,0-26.1,0c-0.5-1.3-1.1-2.5-1.6-3.8c5.5-2.5,11-6.9,16.4-6.9
			c4.4,0,8.7,5.4,13.1,8.3C1907.8,3750.6,1907.2,3751.4,1906.6,3752.2z"/>
		<path class="st1" d="M2053.3,3752.4c-8.8,0-17.5,0-26.3,0c-0.5-1-1.1-2.1-1.6-3.1c4.6-2.8,9.3-7.8,13.9-7.8
			c5.2-0.1,10.5,4.4,15.7,6.8C2054.5,3749.7,2053.9,3751,2053.3,3752.4z"/>
		<path class="st1" d="M2199.6,3752.9c-8.7,0-17.4,0-26.1,0c-0.6-1.3-1.2-2.6-1.7-3.8c5-2.7,10-7.6,15-7.5c5.1,0,10.1,4.9,15.1,7.7
			C2201.2,3750.4,2200.4,3751.6,2199.6,3752.9z"/>
		<path class="st1" d="M1662.8,2649c6,6.3,12,12.7,18,19c-0.1,0.9-0.2,1.9-0.4,2.8c-5.3-1.1-12.1-0.5-15.5-3.6
			c-3.9-3.6-4.7-10.4-6.8-15.8C1659.7,2650.6,1661.3,2649.8,1662.8,2649z"/>
		<path class="st1" d="M2638.7,2281.7c3.4,16.5,0,21.3-14.5,22.3C2628.9,2296.8,2633.1,2290.2,2638.7,2281.7z"/>
		<path class="st1" d="M1683.9,3229.5c1.6,6.9,3.1,13.9,4.7,20.8c-1.7,0.4-3.5,0.8-5.2,1.2c-1.6-6.8-3.3-13.7-4.9-20.5
			C1680.3,3230.5,1682.1,3230,1683.9,3229.5z"/>
	</g>
	<path class="st3" d="M2021.4,2876.5c0,0,31.2,103.5,134.6,62.8c7.6-3.7,68.7-32.2,24.5-122.7c0.8-0.5-57.6-9.6-57.6-9.6
		S2115.7,2874,2021.4,2876.5z"/>
	<path class="st3" d="M2019.5,2876.5c0,0-31.2,103.5-134.6,62.8c-7.6-3.7-68.7-32.2-24.5-122.7c-0.8-0.5,57.6-9.6,57.6-9.6
		S1925.2,2874,2019.5,2876.5z"/>
	<path class="st3" d="M2060.6,2608.1c0,0-13.1,163.3,62.4,198.9c-7.1,19.5-7.6,69.5-113.6,69.5c-22.9,0-78.9,0-98.4-69.5
		c1.7,1.7,80.6-33.9,68.7-196.8C1980.4,2610.2,2060.6,2608.1,2060.6,2608.1z"/>
	<path class="st1" d="M2059.7,2629.7c0,0-64.5,22-79.9,40.7c0.1-0.9-0.2-60.2-0.2-60.2l80.9-2.1L2059.7,2629.7z"/>
	<g id="St0H2N.tif">
		
			<image style="overflow:visible;" width="735" height="781" id="Слой_1" xlink:href="CE751BC9722282D8.png"  transform="matrix(3.3825 0 0 3.3825 773.2234 1247.8782)">
		</image>
	</g>
	<g id="b6dyLz.tif">
		
			<image style="overflow:visible;" width="78" height="63" id="Слой_1_1_" xlink:href="CE751BC9722282D9.png"  transform="matrix(0.288 0 0 0.288 1988.7679 1990.928)">
		</image>
	</g>
</g>
</svg>
